<svg height="461pt" viewBox="-46 0 461 461.267" width="461pt" xmlns="http://www.w3.org/2000/svg"><path d="m23.15625 176.71875h30.734375v122.933594h-30.734375zm0 0" fill="#7d8d9c"/><path d="m315.121094 176.71875h30.734375v122.933594h-30.734375zm0 0" fill="#7d8d9c"/><path d="m184.507812 7.6875c-89.113281 0-161.351562 72.238281-161.351562 161.347656 0 89.113282 72.238281 161.351563 161.351562 161.351563 89.109376 0 161.347657-72.238281 161.347657-161.351563 0-89.109375-72.238281-161.347656-161.347657-161.347656zm0 291.964844c-72.140624 0-130.617187-58.480469-130.617187-130.617188 0-72.136718 58.476563-130.617187 130.617187-130.617187 72.136719 0 130.613282 58.480469 130.613282 130.617187 0 72.136719-58.476563 130.617188-130.613282 130.617188zm0 0" fill="#394d5c"/><path d="m184.507812 38.417969c-72.140624 0-130.617187 58.480469-130.617187 130.617187 0 72.136719 58.476563 130.617188 130.617187 130.617188 72.136719 0 130.613282-58.480469 130.613282-130.617188 0-72.136718-58.476563-130.617187-130.613282-130.617187zm0 230.5c-55.164062 0-99.886718-44.71875-99.886718-99.882813 0-55.164062 44.722656-99.882812 99.886718-99.882812 55.164063 0 99.882813 44.71875 99.882813 99.882812 0 55.164063-44.722656 99.882813-99.882813 99.882813zm0 0" fill="#7d8d9c"/><path d="m184.507812 69.152344c-55.164062 0-99.886718 44.71875-99.886718 99.882812 0 55.164063 44.722656 99.882813 99.886718 99.882813 55.164063 0 99.882813-44.71875 99.882813-99.882813 0-55.164062-44.722656-99.882812-99.882813-99.882812zm0 169.03125c-38.191406 0-69.152343-30.957032-69.152343-69.148438s30.960937-69.148437 69.152343-69.148437c38.1875 0 69.148438 30.957031 69.148438 69.148437s-30.960938 69.148438-69.148438 69.148438zm0 0" fill="#394d5c"/><path d="m69.257812 407.21875h-61.46875v-53.785156l15.367188-23.050782h30.734375l15.367187 23.050782zm0 0" fill="#f98c96"/><path d="m23.15625 299.652344h30.734375v30.730468h-30.734375zm0 0" fill="#394d5c"/><path d="m15.472656 407.21875h46.097656v46.097656h-46.097656zm0 0" fill="#7d8d9c"/><path d="m299.753906 330.382812h61.46875v76.835938h-61.46875zm0 0" fill="#f98c96"/><path d="m315.121094 299.652344h30.734375v30.730468h-30.734375zm0 0" fill="#394d5c"/><path d="m315.121094 407.21875h30.734375v30.730469h-30.734375zm0 0" fill="#7d8d9c"/><path d="m23.15625 368.800781h30.734375v15.367188h-30.734375zm0 0" fill="#cfdfe8"/><path d="m315.121094 368.800781h30.734375v15.367188h-30.734375zm0 0" fill="#cfdfe8"/><path d="m184.507812 30.734375c-76.382812 0-138.300781 61.921875-138.300781 138.300781s61.917969 138.300782 138.300781 138.300782c76.378907 0 138.296876-61.921876 138.296876-138.300782-.085938-76.34375-61.953126-138.210937-138.296876-138.300781zm0 261.234375c-67.894531 0-122.933593-55.039062-122.933593-122.933594 0-67.894531 55.039062-122.933594 122.933593-122.933594 67.890626 0 122.929688 55.039063 122.929688 122.933594-.078125 67.863282-55.070312 122.855469-122.929688 122.933594zm0 0"/><path d="m184.507812 61.46875c-59.410156 0-107.566406 48.160156-107.566406 107.566406s48.15625 107.566406 107.566406 107.566406c59.40625 0 107.5625-48.160156 107.5625-107.566406-.066406-59.378906-48.183593-107.5-107.5625-107.566406zm0 199.765625c-50.921874 0-92.203124-41.277344-92.203124-92.199219s41.28125-92.199218 92.203124-92.199218c50.917969 0 92.199219 41.277343 92.199219 92.199218-.058593 50.898438-41.304687 92.140625-92.199219 92.199219zm0 0"/><path d="m184.507812 92.203125c-42.433593 0-76.835937 34.398437-76.835937 76.832031s34.402344 76.832032 76.835937 76.832032c42.429688 0 76.832032-34.398438 76.832032-76.832032-.050782-42.414062-34.421875-76.785156-76.832032-76.832031zm0 138.296875c-33.949218 0-61.46875-27.515625-61.46875-61.464844 0-33.949218 27.519532-61.464844 61.46875-61.464844 33.945313 0 61.464844 27.515626 61.464844 61.464844-.039062 33.929688-27.535156 61.425782-61.464844 61.464844zm0 0"/><path d="m353.539062 445.632812v-30.730468h15.363282v-92.203125h-15.363282v-153.664063c.011719-93.339844-75.644531-169.019531-168.984374-169.035156-91.003907-.015625-165.683594 72.035156-168.929688 162.980469l-.152344 165.078125-15.367187 23.050781v63.792969h7.683593v46.097656h61.46875v-46.097656h7.683594v-63.792969l-15.367187-23.050781v-43.1875c63.757812 67.894531 170.480469 71.246094 238.375 7.492187 2.574219-2.417969 5.070312-4.917969 7.492187-7.492187v37.828125h-15.367187v92.203125h15.367187v30.730468zm-15.367187-15.367187h-15.367187v-15.363281h15.367187zm-307.332031-190.941406c4.296875 9.355469 9.441406 18.296875 15.367187 26.71875v25.925781h-15.367187zm0 68.011719h15.367187v15.363281h-15.367187zm23.050781 138.296874h-30.734375v-30.730468h30.734375zm7.683594-46.097656h-46.101563v-43.773437l11.796875-17.695313h22.507813l11.796875 17.695313zm122.933593-76.835937c-84.867187 0-153.667968-68.796875-153.667968-153.664063 0-84.867187 68.796875-153.664062 153.667968-153.664062 84.867188 0 153.664063 68.796875 153.664063 153.664062-.097656 84.828125-68.839844 153.570313-153.664063 153.664063zm138.296876-30.730469v-25.925781c5.925781-8.421875 11.070312-17.363281 15.367187-26.71875v52.644531zm15.367187 15.367188v15.363281h-15.367187v-15.363281zm-30.734375 30.730468h46.101562v61.46875h-46.101562zm0 0"/><path d="m23.15625 368.800781h30.734375v15.367188h-30.734375zm0 0"/><path d="m315.121094 368.800781h30.734375v15.367188h-30.734375zm0 0"/></svg>