<svg id="Layer_1" enable-background="new 0 0 512 512" height="512" viewBox="0 0 512 512" width="512" xmlns="http://www.w3.org/2000/svg"><g><g><g><g id="XMLID_1494_"><g id="XMLID_1495_"><g id="XMLID_1496_"><g id="XMLID_1497_"><g id="XMLID_1498_"><g id="XMLID_1499_"><g id="XMLID_1500_"><g id="XMLID_1501_"><g id="XMLID_1502_"><g id="XMLID_1503_"><g id="XMLID_1504_"><g id="XMLID_1505_"><g id="XMLID_1506_"><g id="XMLID_1507_"><g id="XMLID_1508_"><circle cx="256" cy="256" fill="#655665" r="256"/></g></g></g></g></g></g></g></g></g></g></g></g></g></g></g></g></g><path d="m501.349 182.76-106.464-106.429s-80.222 68.254-64.499 90.168l-34.116 23.98-102.248-101.959c-16.118-19.673-29.124-4.605-50.779 9.748-23.098 15.308-45.126 26.72-29.818 49.817l95.027 96.425c-2.49 7.234 2.843 19.216 4.055 26.635l-46.553 28.251-21.945-21.89c-16.694-17.934-83.514 87.339-83.514 87.339l141.409 141.409c17.441 3.752 35.534 5.746 54.096 5.746 141.385 0 256-114.615 256-256 0-25.454-3.733-50.033-10.651-73.24z" fill="#493e49"/><g><g><g><path d="m226.591 182.708h132.896v30h-132.896z" fill="#e5e1dc" transform="matrix(.643 -.766 .766 .643 -46.836 294.898)"/></g><g><g><g id="XMLID_1509_"><g id="XMLID_1510_"><g id="XMLID_1511_"><g id="XMLID_1512_"><g id="XMLID_1513_"><g id="XMLID_1514_"><g id="XMLID_1515_"><g id="XMLID_1516_"><g id="XMLID_1517_"><g id="XMLID_1518_"><g id="XMLID_1519_"><g id="XMLID_1615_"><g id="XMLID_1616_"><g id="XMLID_1617_"><ellipse id="XMLID_1618_" cx="356.025" cy="122.736" fill="#f4a300" rx="60.527" ry="60.527" transform="matrix(.941 -.339 .339 .941 -20.528 127.799)"/></g></g></g></g></g></g></g></g></g></g></g></g></g></g></g></g></g><g><g><path d="m288.156 235.709h30v132.895h-30z" fill="#e5e1dc" transform="matrix(.643 -.766 .766 .643 -123.198 339.906)"/></g><g><g id="XMLID_307_"><g id="XMLID_308_"><g id="XMLID_309_"><g id="XMLID_310_"><g id="XMLID_311_"><g id="XMLID_312_"><g id="XMLID_313_"><g id="XMLID_315_"><g id="XMLID_316_"><g id="XMLID_317_"><g id="XMLID_322_"><g id="XMLID_323_"><g id="XMLID_324_"><g id="XMLID_325_"><ellipse id="XMLID_326_" cx="369.488" cy="357.152" fill="#e54c00" rx="66.838" ry="66.838" transform="matrix(.707 -.707 .707 .707 -144.324 365.875)"/></g></g></g></g></g></g></g></g></g></g></g></g></g></g></g></g><g><g><path d="m194.211 135.627h30v132.896h-30z" fill="#f4f2ef" transform="matrix(.834 -.551 .551 .834 -76.726 148.752)"/></g><g><g><g id="XMLID_1619_"><g id="XMLID_1620_"><g id="XMLID_1621_"><g id="XMLID_1622_"><g id="XMLID_1623_"><g id="XMLID_1624_"><g id="XMLID_1625_"><g id="XMLID_1626_"><g id="XMLID_1627_"><g id="XMLID_1628_"><g id="XMLID_1629_"><g id="XMLID_1675_"><g id="XMLID_1691_"><g id="XMLID_1692_"><g id="XMLID_1693_"><ellipse cx="155.247" cy="120.367" fill="#f9710d" rx="50.173" ry="50.173" transform="matrix(.199 -.98 .98 .199 6.423 248.59)"/></g></g></g></g></g></g></g></g></g></g></g></g></g></g></g></g></g></g><g><g><path d="m111.408 271.702h132.896v30h-132.896z" fill="#f4f2ef" transform="matrix(.925 -.379 .379 .925 -95.459 88.89)"/></g><g><g><g id="XMLID_1694_"><g id="XMLID_1695_"><g id="XMLID_1696_"><g id="XMLID_1697_"><g id="XMLID_1698_"><g id="XMLID_1699_"><g id="XMLID_1700_"><g id="XMLID_1701_"><g id="XMLID_1702_"><g id="XMLID_1703_"><g id="XMLID_1704_"><g id="XMLID_1705_"><g id="XMLID_1706_"><g id="XMLID_1707_"><g id="XMLID_1708_"><ellipse cx="99.704" cy="318.741" fill="#ffc136" rx="60.527" ry="60.527" transform="matrix(.707 -.707 .707 .707 -196.181 163.858)"/></g></g></g></g></g></g></g></g></g></g></g></g></g></g></g></g></g></g><g><g><g id="XMLID_1709_"><g id="XMLID_1800_"><g id="XMLID_1801_"><g id="XMLID_1802_"><g id="XMLID_1803_"><g id="XMLID_1804_"><g id="XMLID_1805_"><g id="XMLID_1806_"><g id="XMLID_1807_"><g id="XMLID_1808_"><g id="XMLID_1809_"><g id="XMLID_1810_"><g id="XMLID_1811_"><g id="XMLID_1812_"><g id="XMLID_1813_"><ellipse cx="246.012" cy="253.683" fill="#46f7d5" rx="45.834" ry="45.834" transform="matrix(.479 -.878 .878 .479 -94.556 347.973)"/></g></g></g></g></g></g></g></g></g></g></g></g></g></g></g></g></g><g><g id="XMLID_447_"><g id="XMLID_448_"><g id="XMLID_449_"><g id="XMLID_450_"><g id="XMLID_451_"><g id="XMLID_452_"><g id="XMLID_453_"><g id="XMLID_454_"><g id="XMLID_455_"><g id="XMLID_456_"><g id="XMLID_1367_"><g id="XMLID_1368_"><g id="XMLID_1369_"><g id="XMLID_1370_"><path d="m281.156 283.107c-9.06 10.82-22.06 16.4-35.14 16.41v-91.67c10.38-.01 20.83 3.5 29.42 10.7 19.41 16.249 21.97 45.16 5.72 64.56z" fill="#2ad1b5"/></g></g></g></g></g></g></g></g></g></g></g></g></g></g></g></g></g></svg>