<?xml version="1.0" encoding="iso-8859-1"?>
<!-- Generator: Adobe Illustrator 19.0.0, SVG Export Plug-In . SVG Version: 6.00 Build 0)  -->
<svg version="1.1" id="Capa_1" xmlns="http://www.w3.org/2000/svg" xmlns:xlink="http://www.w3.org/1999/xlink" x="0px" y="0px"
	 viewBox="0 0 512.001 512.001" style="enable-background:new 0 0 512.001 512.001;" xml:space="preserve">
<path style="fill:#6E6B87;" d="M473.368,370.351H38.632c-2.276,0-4.121-1.845-4.121-4.121v-77.264h442.978v77.264
	C477.489,368.506,475.644,370.351,473.368,370.351z"/>
<path style="fill:#625F78;" d="M473.368,370.351h-26.785v-81.384h30.905v77.264C477.489,368.506,475.644,370.351,473.368,370.351z"
	/>
<path style="fill:#EC5569;" d="M477.489,223.035H34.511v-77.264c0-2.276,1.845-4.121,4.121-4.121h434.736
	c2.276,0,4.121,1.845,4.121,4.121L477.489,223.035L477.489,223.035z"/>
<path style="fill:#BD2C30;" d="M477.489,223.035h-30.905v-81.384h26.785c2.276,0,4.121,1.845,4.121,4.121v77.263H477.489z"/>
<path style="fill:#CBDAE0;" d="M507.879,339.446H4.121c-2.276,0-4.121-1.845-4.121-4.121V176.677c0-2.276,1.845-4.121,4.121-4.121
	H507.88c2.276,0,4.121,1.845,4.121,4.121v158.648C512,337.601,510.155,339.446,507.879,339.446z"/>
<path style="fill:#A8B5BA;" d="M507.879,339.446h-26.785v-166.89h26.785c2.276,0,4.121,1.845,4.121,4.121v158.648
	C512,337.601,510.155,339.446,507.879,339.446z"/>
<g>
	<path style="fill:#444B66;" d="M290.068,227.035v39.37c0,2.209-1.791,4-4,4h-5.657c-2.209,0-4,1.791-4,4v10.562
		c0,2.209-1.791,4-4,4h-34.738c-2.209,0-4-1.791-4-4v-10.562c0-2.209-1.791-4-4-4h-5.657c-2.209,0-4-1.791-4-4v-39.37
		c0-2.209,1.791-4,4-4h62.052C288.277,223.035,290.068,224.826,290.068,227.035z"/>
	<path style="fill:#444B66;" d="M194.455,227.035v39.37c0,2.209-1.791,4-4,4h-5.657c-2.209,0-4,1.791-4,4v10.562
		c0,2.209-1.791,4-4,4h-34.737c-2.209,0-4-1.791-4-4v-10.562c0-2.209-1.791-4-4-4h-5.657c-2.209,0-4-1.791-4-4v-39.37
		c0-2.209,1.791-4,4-4h62.052C192.665,223.035,194.455,224.826,194.455,227.035z"/>
	<path style="fill:#444B66;" d="M385.581,227.035v39.37c0,2.209-1.791,4-4,4h-5.657c-2.209,0-4,1.791-4,4v10.562
		c0,2.209-1.791,4-4,4h-34.737c-2.209,0-4-1.791-4-4v-10.562c0-2.209-1.791-4-4-4h-5.657c-2.209,0-4-1.791-4-4v-39.37
		c0-2.209,1.791-4,4-4h62.052C383.79,223.035,385.581,224.826,385.581,227.035z"/>
	<path style="fill:#444B66;" d="M481.095,227.035v39.37c0,2.209-1.791,4-4,4h-5.657c-2.209,0-4,1.791-4,4v10.562
		c0,2.209-1.791,4-4,4H428.7c-2.209,0-4-1.791-4-4v-10.562c0-2.209-1.791-4-4-4h-5.657c-2.209,0-4-1.791-4-4v-39.37
		c0-2.209,1.791-4,4-4h62.052C479.304,223.035,481.095,224.826,481.095,227.035z"/>
	<path style="fill:#444B66;" d="M93.128,232.022H34.79c-4.142,0-7.5-3.358-7.5-7.5s3.358-7.5,7.5-7.5h58.338
		c4.142,0,7.5,3.358,7.5,7.5S97.27,232.022,93.128,232.022z"/>
	<path style="fill:#444B66;" d="M93.128,253.008H34.79c-4.142,0-7.5-3.358-7.5-7.5s3.358-7.5,7.5-7.5h58.338
		c4.142,0,7.5,3.358,7.5,7.5S97.27,253.008,93.128,253.008z"/>
	<path style="fill:#444B66;" d="M93.128,273.994H34.79c-4.142,0-7.5-3.358-7.5-7.5c0-4.142,3.358-7.5,7.5-7.5h58.338
		c4.142,0,7.5,3.358,7.5,7.5C100.628,270.636,97.27,273.994,93.128,273.994z"/>
	<path style="fill:#444B66;" d="M93.128,294.979H34.79c-4.142,0-7.5-3.358-7.5-7.5c0-4.142,3.358-7.5,7.5-7.5h58.338
		c4.142,0,7.5,3.358,7.5,7.5C100.628,291.621,97.27,294.979,93.128,294.979z"/>
</g>
<g>
</g>
<g>
</g>
<g>
</g>
<g>
</g>
<g>
</g>
<g>
</g>
<g>
</g>
<g>
</g>
<g>
</g>
<g>
</g>
<g>
</g>
<g>
</g>
<g>
</g>
<g>
</g>
<g>
</g>
</svg>
