<svg height="480pt" viewBox="-40 0 480 480" width="480pt" xmlns="http://www.w3.org/2000/svg"><path d="m376 8h-352c-8.835938 0-16 7.164062-16 16v432c0 8.835938 7.164062 16 16 16h352c8.835938 0 16-7.164062 16-16v-432c0-8.835938-7.164062-16-16-16zm-176 440c-4.417969 0-8-3.582031-8-8s3.582031-8 8-8 8 3.582031 8 8-3.582031 8-8 8zm168-48c0 4.417969-3.582031 8-8 8h-320c-4.417969 0-8-3.582031-8-8v-360c0-4.417969 3.582031-8 8-8h320c4.417969 0 8 3.582031 8 8zm0 0" fill="#818085"/><path d="m208 440c0 4.417969-3.582031 8-8 8s-8-3.582031-8-8 3.582031-8 8-8 8 3.582031 8 8zm0 0" fill="#c8c7cb"/><path d="m40 32h320c4.417969 0 8 3.582031 8 8v360c0 4.417969-3.582031 8-8 8h-320c-4.417969 0-8-3.582031-8-8v-360c0-4.417969 3.582031-8 8-8zm0 0" fill="#4b7493"/><path d="m32 376.480469v23.519531c0 4.417969 3.582031 8 8 8h320c4.417969 0 8-3.582031 8-8v-352.800781zm0 0" fill="#5a8bb0"/><g fill="#231f20"><path d="m216 440c0 8.835938-7.164062 16-16 16s-16-7.164062-16-16 7.164062-16 16-16 16 7.164062 16 16zm0 0"/><path d="m376 0h-352c-13.253906 0-24 10.746094-24 24v432c0 13.253906 10.746094 24 24 24h352c13.253906 0 24-10.746094 24-24v-432c0-13.253906-10.746094-24-24-24zm8 456c0 4.417969-3.582031 8-8 8h-352c-4.417969 0-8-3.582031-8-8v-432c0-4.417969 3.582031-8 8-8h352c4.417969 0 8 3.582031 8 8zm0 0"/><path d="m360 24h-320c-8.835938 0-16 7.164062-16 16v360c0 8.835938 7.164062 16 16 16h320c8.835938 0 16-7.164062 16-16v-360c0-8.835938-7.164062-16-16-16zm-320 376v-360h320v360zm0 0"/></g></svg>