<svg id="Layer_1" height="512" viewBox="0 0 512 512" width="512" xmlns="http://www.w3.org/2000/svg" data-name="Layer 1"><path d="m221.86 292.14v2.64h-163.72v-11.64a20 20 0 0 1 20-20h123.72a20 20 0 0 1 20 20z" fill="#7b9aaa"/><path d="m50.39 415.83h121.551v34.93h-121.551z" fill="#6d7486"/><path d="m88.14 283.14a20 20 0 0 1 20-20h-30a20 20 0 0 0 -20 20v11.64h30z" fill="#65818c"/><path d="m50.39 415.83h30v34.93h-30z" fill="#525763"/><path d="m340.06 415.83h121.551v34.93h-121.551z" fill="#6d7486"/><path d="m474 292.78h-436a19.994 19.994 0 0 0 -20 20v85.58a20 20 0 0 0 20 20h436a20 20 0 0 0 20-20v-85.58a19.994 19.994 0 0 0 -20-20z" fill="#7d8696"/><path d="m48 398.36v-85.58a19.994 19.994 0 0 1 20-20h-30a19.994 19.994 0 0 0 -20 20v85.58a20 20 0 0 0 20 20h30a20 20 0 0 1 -20-20z" fill="#606772"/><circle cx="137" cy="355.57" fill="#e87187" r="11.5"/><circle cx="96.85" cy="355.57" fill="#f3ce7d" r="11.5"/><circle cx="56.71" cy="355.57" fill="#6994fe" r="11.5"/><g fill="#284268"><path d="m113.8 128.343a6 6 0 1 0 8.472 8.5 25.152 25.152 0 0 1 35.458 0 6 6 0 0 0 8.472-8.5 37.171 37.171 0 0 0 -52.402 0z"/><path d="m183.985 116.571a6 6 0 0 0 4.24-10.246 68.362 68.362 0 0 0 -96.45 0 6 6 0 0 0 8.479 8.492 56.344 56.344 0 0 1 79.492 0 5.979 5.979 0 0 0 4.239 1.754z"/><path d="m206 94.557a6 6 0 0 0 4.24-10.245 99.508 99.508 0 0 0 -140.48 0 6 6 0 0 0 8.48 8.488 87.5 87.5 0 0 1 123.52 0 5.976 5.976 0 0 0 4.24 1.757z"/><path d="m56.706 338.068a17.5 17.5 0 1 0 17.5 17.5 17.519 17.519 0 0 0 -17.5-17.5zm0 23a5.5 5.5 0 1 1 5.5-5.5 5.5 5.5 0 0 1 -5.5 5.498z"/><path d="m450 336.382a6 6 0 0 0 -6 6v26.371a6 6 0 0 0 12 0v-26.371a6 6 0 0 0 -6-6z"/><path d="m96.854 338.068a17.5 17.5 0 1 0 17.5 17.5 17.519 17.519 0 0 0 -17.5-17.5zm0 23a5.5 5.5 0 1 1 5.5-5.5 5.505 5.505 0 0 1 -5.5 5.498z"/><path d="m137 338.068a17.5 17.5 0 1 0 17.5 17.5 17.52 17.52 0 0 0 -17.5-17.5zm0 23a5.5 5.5 0 1 1 5.5-5.5 5.506 5.506 0 0 1 -5.5 5.498z"/><path d="m420 336.382a6 6 0 0 0 -6 6v26.371a6 6 0 0 0 12 0v-26.371a6 6 0 0 0 -6-6z"/><path d="m390 336.382a6 6 0 0 0 -6 6v26.371a6 6 0 0 0 12 0v-26.371a6 6 0 0 0 -6-6z"/><path d="m360 336.382a6 6 0 0 0 -6 6v26.371a6 6 0 0 0 12 0v-26.371a6 6 0 0 0 -6-6z"/><path d="m474 287h-246v-3.859a26.274 26.274 0 0 0 -26.145-26.141h-55.855v-103.069a6 6 0 0 0 -12 0v103.069h-55.855a26.274 26.274 0 0 0 -26.145 26.141v3.859h-14a25.84 25.84 0 0 0 -26 25.778v85.577a25.728 25.728 0 0 0 26 25.645h6v26.764a6.55 6.55 0 0 0 6.39 6.236h121.548a6.26 6.26 0 0 0 6.062-6.236v-26.764h156v26.764a6.26 6.26 0 0 0 6.062 6.236h121.548a6.55 6.55 0 0 0 6.39-6.236v-26.764h6a25.728 25.728 0 0 0 26-25.645v-85.577a25.84 25.84 0 0 0 -26-25.778zm-308 158h-110v-21h110zm290 0h-110v-21h110zm32-46a14 14 0 0 1 -14 14h-436a14 14 0 0 1 -14-14v-86a14 14 0 0 1 14-14h47a6 6 0 0 0 0-12h-21v-3.859a14.182 14.182 0 0 1 14.141-14.141h123.718a14.182 14.182 0 0 1 14.141 14.141v3.859h-89a6 6 0 0 0 0 12h347a14 14 0 0 1 14 14z"/></g><g id="_Path_3" data-name=" Path 3"><path d="m43.588 325.013h-5.181a6 6 0 1 1 0-12h5.181a6 6 0 1 1 0 12z" fill="#284268"/></g><g id="_Path_3-2" data-name=" Path 3"><path d="m133.593 325.013h-66.341a6 6 0 1 1 0-12h66.341a6 6 0 1 1 0 12z" fill="#284268"/></g></svg>