<?xml version="1.0" encoding="iso-8859-1"?>
<!-- Generator: Adobe Illustrator 19.0.0, SVG Export Plug-In . SVG Version: 6.00 Build 0)  -->
<svg version="1.1" id="Capa_1" xmlns="http://www.w3.org/2000/svg" xmlns:xlink="http://www.w3.org/1999/xlink" x="0px" y="0px"
	 viewBox="0 0 512 512" style="enable-background:new 0 0 512 512;" xml:space="preserve">
<g>
	<g>
		<path style="fill:#7F8C8D;" d="M221.867,477.867H128c-4.713,0-8.533,3.82-8.533,8.533s3.821,8.533,8.533,8.533h93.867
			c4.713,0,8.533-3.82,8.533-8.533S226.579,477.867,221.867,477.867z"/>
		<path style="fill:#7F8C8D;" d="M503.467,477.867h-51.2c-4.713,0-8.533,3.82-8.533,8.533s3.82,8.533,8.533,8.533h51.2
			c4.713,0,8.533-3.82,8.533-8.533S508.18,477.867,503.467,477.867z"/>
		<path style="fill:#7F8C8D;" d="M384,477.867h-93.867c-4.713,0-8.533,3.82-8.533,8.533s3.821,8.533,8.533,8.533H384
			c4.713,0,8.533-3.82,8.533-8.533S388.713,477.867,384,477.867z"/>
		<path style="fill:#7F8C8D;" d="M59.733,477.867h-51.2c-4.713,0-8.533,3.82-8.533,8.533s3.821,8.533,8.533,8.533h51.2
			c4.713,0,8.533-3.82,8.533-8.533S64.446,477.867,59.733,477.867z"/>
		<path style="fill:#7F8C8D;" d="M256,392.533c-4.713,0-8.533,3.82-8.533,8.533v68.267c0,4.713,3.821,8.533,8.533,8.533
			c4.713,0,8.533-3.821,8.533-8.533v-68.267C264.533,396.354,260.713,392.533,256,392.533z"/>
		<path style="fill:#7F8C8D;" d="M418.133,349.867c-4.713,0-8.533,3.82-8.533,8.533v110.933c0,4.713,3.82,8.533,8.533,8.533
			s8.533-3.821,8.533-8.533V358.4C426.667,353.687,422.846,349.867,418.133,349.867z"/>
		<path style="fill:#7F8C8D;" d="M93.867,349.867c-4.713,0-8.533,3.82-8.533,8.533v110.933c0,4.713,3.821,8.533,8.533,8.533
			c4.713,0,8.533-3.821,8.533-8.533V358.4C102.4,353.687,98.579,349.867,93.867,349.867z"/>
	</g>
	<g>
		<path style="fill:#BDC3C7;" d="M68.267,469.333h51.2c4.713,0,8.533,3.821,8.533,8.533v17.067c0,4.713-3.82,8.533-8.533,8.533
			h-51.2c-4.713,0-8.533-3.821-8.533-8.533v-17.067C59.733,473.154,63.554,469.333,68.267,469.333z"/>
		<path style="fill:#BDC3C7;" d="M392.533,469.333h51.2c4.713,0,8.533,3.821,8.533,8.533v17.067c0,4.713-3.821,8.533-8.533,8.533
			h-51.2c-4.713,0-8.533-3.821-8.533-8.533v-17.067C384,473.154,387.821,469.333,392.533,469.333z"/>
		<path style="fill:#BDC3C7;" d="M230.4,469.333h51.2c4.713,0,8.533,3.821,8.533,8.533v17.067c0,4.713-3.821,8.533-8.533,8.533
			h-51.2c-4.713,0-8.533-3.821-8.533-8.533v-17.067C221.867,473.154,225.687,469.333,230.4,469.333z"/>
	</g>
	<path style="fill:#2C3E50;" d="M25.6,51.2h145.067v307.2H25.6c-9.414-0.028-17.039-7.653-17.067-17.067V68.267
		C8.561,58.852,16.186,51.228,25.6,51.2z"/>
	<path style="fill:#35495E;" d="M8.533,68.267v68.267h162.133V51.2H25.6C16.186,51.228,8.561,58.852,8.533,68.267z"/>
	<g>
		<path style="fill:#547580;" d="M119.467,179.2h-51.2c-4.713,0-8.533-3.821-8.533-8.533c0-4.713,3.821-8.533,8.533-8.533h51.2
			c4.713,0,8.533,3.821,8.533,8.533C128,175.38,124.179,179.2,119.467,179.2z"/>
		<path style="fill:#547580;" d="M68.267,196.267h51.2c4.713,0,8.533,3.821,8.533,8.533c0,4.713-3.821,8.533-8.533,8.533h-51.2
			c-4.713,0-8.533-3.821-8.533-8.533C59.733,200.087,63.554,196.267,68.267,196.267z"/>
	</g>
	<circle style="fill:#4C8056;" cx="93.867" cy="281.6" r="25.6"/>
	<g>
		<path style="fill:#2C3E50;" d="M102.4,85.333H42.667c-4.713,0-8.533,3.821-8.533,8.533s3.821,8.533,8.533,8.533H102.4
			c4.713,0,8.533-3.821,8.533-8.533S107.113,85.333,102.4,85.333z"/>
		<path style="fill:#2C3E50;" d="M145.067,85.333h-8.533c-4.713,0-8.533,3.821-8.533,8.533s3.821,8.533,8.533,8.533h8.533
			c4.713,0,8.533-3.821,8.533-8.533S149.779,85.333,145.067,85.333z"/>
		<path style="fill:#2C3E50;" d="M486.4,51.2H341.333v307.2H486.4c9.414-0.028,17.039-7.653,17.067-17.067V68.267
			C503.439,58.852,495.814,51.228,486.4,51.2z"/>
	</g>
	<path style="fill:#35495E;" d="M503.467,68.267v68.267H341.333V51.2H486.4C495.814,51.228,503.439,58.852,503.467,68.267z"/>
	<g>
		<path style="fill:#547580;" d="M392.533,179.2h51.2c4.713,0,8.533-3.821,8.533-8.533c0-4.713-3.821-8.533-8.533-8.533h-51.2
			c-4.713,0-8.533,3.821-8.533,8.533C384,175.38,387.821,179.2,392.533,179.2z"/>
		<path style="fill:#547580;" d="M443.733,196.267h-51.2c-4.713,0-8.533,3.821-8.533,8.533c0,4.713,3.82,8.533,8.533,8.533h51.2
			c4.713,0,8.533-3.821,8.533-8.533C452.267,200.087,448.446,196.267,443.733,196.267z"/>
	</g>
	<circle style="fill:#4C8056;" cx="418.133" cy="281.6" r="25.6"/>
	<g>
		<path style="fill:#2C3E50;" d="M426.667,85.333h-59.733c-4.713,0-8.533,3.821-8.533,8.533s3.82,8.533,8.533,8.533h59.733
			c4.713,0,8.533-3.821,8.533-8.533S431.38,85.333,426.667,85.333z"/>
		<path style="fill:#2C3E50;" d="M469.333,85.333H460.8c-4.713,0-8.533,3.821-8.533,8.533s3.82,8.533,8.533,8.533h8.533
			c4.713,0,8.533-3.821,8.533-8.533S474.046,85.333,469.333,85.333z"/>
	</g>
	<path style="fill:#3F5C6C;" d="M153.6,136.533V384c0.028,9.414,7.652,17.039,17.067,17.067h170.667
		c9.414-0.028,17.039-7.652,17.067-17.067V25.6c-0.028-9.414-7.652-17.039-17.067-17.067H170.667
		c-9.414,0.028-17.039,7.652-17.067,17.067v25.6"/>
	<path style="fill:#547580;" d="M358.4,25.6v85.333H153.6V25.6c0.028-9.414,7.652-17.039,17.067-17.067h170.667
		C350.748,8.561,358.372,16.186,358.4,25.6z"/>
	<circle style="fill:#71C285;" cx="256" cy="324.267" r="25.6"/>
	<g>
		<path style="fill:#3F5C6C;" d="M281.6,51.2h-93.867c-4.713,0-8.533,3.821-8.533,8.533s3.821,8.533,8.533,8.533H281.6
			c4.713,0,8.533-3.821,8.533-8.533S286.313,51.2,281.6,51.2z"/>
		<path style="fill:#3F5C6C;" d="M324.267,51.2h-8.533c-4.713,0-8.533,3.821-8.533,8.533s3.821,8.533,8.533,8.533h8.533
			c4.713,0,8.533-3.821,8.533-8.533S328.98,51.2,324.267,51.2z"/>
	</g>
	<g>
		<path style="fill:#84B5CB;" d="M213.333,153.6h85.333c4.713,0,8.533-3.821,8.533-8.533c0-4.713-3.82-8.533-8.533-8.533h-85.333
			c-4.713,0-8.533,3.821-8.533,8.533C204.8,149.779,208.621,153.6,213.333,153.6z"/>
		<path style="fill:#84B5CB;" d="M298.667,170.667h-85.333c-4.713,0-8.533,3.821-8.533,8.533s3.82,8.533,8.533,8.533h85.333
			c4.713,0,8.533-3.82,8.533-8.533S303.38,170.667,298.667,170.667z"/>
		<path style="fill:#84B5CB;" d="M298.667,204.8h-85.333c-4.713,0-8.533,3.82-8.533,8.533s3.82,8.533,8.533,8.533h85.333
			c4.713,0,8.533-3.821,8.533-8.533S303.38,204.8,298.667,204.8z"/>
	</g>
</g>
<g>
</g>
<g>
</g>
<g>
</g>
<g>
</g>
<g>
</g>
<g>
</g>
<g>
</g>
<g>
</g>
<g>
</g>
<g>
</g>
<g>
</g>
<g>
</g>
<g>
</g>
<g>
</g>
<g>
</g>
</svg>
